<svg xmlns="http://www.w3.org/2000/svg" viewBox="0 0 197.38 56.05"><defs><style>.cls-1{fill:#58595b;}.cls-2{fill:#f5822b;}.cls-3{fill:#e03a3e;}.cls-4{fill:#77787b;}</style></defs><g id="Layer_2" data-name="Layer 2"><g id="Layer_1-2" data-name="Layer 1"><path class="cls-1" d="M155.55,25.44h-4l2-5.6Zm2.39,3.37-3.89-10.6h-1l-3.9,10.6h1.2l.85-2.4h4.63l.85,2.4Z"/><path class="cls-1" d="M160.19,22a3.12,3.12,0,0,1,2.14-.7,2.92,2.92,0,0,1,2,.74l-.8.81a1.63,1.63,0,0,0-1.41-.54c-1.14,0-1.61.85-1.61,2v4.49h-1.07V24.24A2.92,2.92,0,0,1,160.19,22Z"/><path class="cls-1" d="M168.05,28.9c-1.85,0-3.24-1.25-3.24-3.75s1.39-3.75,3.24-3.75a2.9,2.9,0,0,1,2.41,1.09l-.73.68a2,2,0,0,0-1.68-.82,2,2,0,0,0-1.69.84,3.07,3.07,0,0,0-.48,2,3.1,3.1,0,0,0,.48,2,2,2,0,0,0,1.69.83,2,2,0,0,0,1.68-.83l.73.7A2.92,2.92,0,0,1,168.05,28.9Z"/><path class="cls-1" d="M177.19,28.81V24.29a1.69,1.69,0,0,0-1.79-1.94,1.73,1.73,0,0,0-1.83,1.94v4.52H172.5V18.21h1.07v4.08a2.63,2.63,0,0,1,2.06-.89,2.48,2.48,0,0,1,2.64,2.71v4.7Z"/><path class="cls-1" d="M180.81,19.41V18.2H182v1.21Zm.06,9.4V21.49h1.07v7.32Z"/><path class="cls-1" d="M187.09,28.81h-1l-2.67-7.32h1.16l2,5.88,2-5.88h1.16Z"/><path class="cls-1" d="M195.68,24.63h-3.87a3.17,3.17,0,0,1,.22-1.22,1.88,1.88,0,0,1,3.42,0A3,3,0,0,1,195.68,24.63Zm1.07.81V25c0-2.18-1.12-3.55-3-3.55s-3,1.39-3,3.75c0,2.59,1.26,3.75,3.19,3.75a3.35,3.35,0,0,0,2.68-1.13l-.73-.64A2.4,2.4,0,0,1,194,28c-1.39,0-2.15-.93-2.15-2.53Z"/><path class="cls-1" d="M118.08,19.23v3.9h4.64v1h-4.64v4.67H117V18.22h6.58v1Z"/><path class="cls-1" d="M126.54,19.41v-1.2h-1.21v1.2Zm-.08,9.4V21.5h-1.07v7.31Z"/><path class="cls-1" d="M129.44,28.85V18.22h1.08V28.85Z"/><path class="cls-1" d="M143,28.81v-4.5a1.82,1.82,0,1,0-3.63-.12v4.62h-1.07v-4.5a1.7,1.7,0,0,0-1.8-1.95,1.73,1.73,0,0,0-1.83,1.95v4.5h-1.08V21.5h1.08v.79a2.68,2.68,0,0,1,2.06-.89A2.41,2.41,0,0,1,139,22.62a2.82,2.82,0,0,1,2.41-1.22,2.64,2.64,0,0,1,1.89.69,2.7,2.7,0,0,1,.79,2v4.68Z"/><path class="cls-1" d="M79.85,25.15a3.19,3.19,0,0,1-.58,2.27,1.95,1.95,0,0,1-2.67,0A3.25,3.25,0,0,1,76,25.15a3.22,3.22,0,0,1,.59-2.26,1.95,1.95,0,0,1,2.67,0A3.17,3.17,0,0,1,79.85,25.15Zm1.07,0A3.89,3.89,0,0,0,80,22.24a2.88,2.88,0,0,0-2.1-.84,2.84,2.84,0,0,0-2.09.84,3.9,3.9,0,0,0-.9,2.91,3.92,3.92,0,0,0,.9,2.92,2.87,2.87,0,0,0,2.09.83,2.92,2.92,0,0,0,2.1-.83A3.91,3.91,0,0,0,80.92,25.15Z"/><path class="cls-1" d="M93.51,24.63H89.64a3.21,3.21,0,0,1,.22-1.22,1.89,1.89,0,0,1,3.43,0A3.21,3.21,0,0,1,93.51,24.63Zm1.07.81V25c0-2.17-1.11-3.55-3-3.55s-3,1.39-3,3.75c0,2.59,1.26,3.75,3.2,3.75a3.33,3.33,0,0,0,2.68-1.13l-.73-.64A2.42,2.42,0,0,1,91.8,28c-1.4,0-2.16-.93-2.16-2.53Z"/><path class="cls-1" d="M101,26.22a1.66,1.66,0,0,1-.37,1.27A2.15,2.15,0,0,1,99,28c-1.16,0-1.68-.4-1.68-1.25s.54-1.29,1.64-1.29H101Zm1.07,2.59v-5c0-1.59-1-2.44-2.93-2.44a2.83,2.83,0,0,0-2.59,1.09l.73.67a1.94,1.94,0,0,1,1.85-.84c1.34,0,1.87.54,1.87,1.61v.7h-2.2c-1.64,0-2.53.83-2.53,2.12a2.12,2.12,0,0,0,.55,1.49,2.62,2.62,0,0,0,2.07.66,2.56,2.56,0,0,0,2.11-.79v.7Z"/><path class="cls-1" d="M109.38,28.81v-4.5a1.82,1.82,0,1,0-3.62,0v4.5h-1.07V21.5h1.07v.79a2.64,2.64,0,0,1,2-.89,2.57,2.57,0,0,1,1.88.69,2.72,2.72,0,0,1,.76,2v4.68Z"/><path class="cls-1" d="M83.94,22a3.11,3.11,0,0,1,2.15-.69,2.81,2.81,0,0,1,2,.74l-.79.8a1.64,1.64,0,0,0-1.42-.53c-1.13,0-1.6.85-1.6,2v4.49H83.21V24.24A3,3,0,0,1,83.94,22Z"/><rect class="cls-1" x="65.85" y="18.22" width="1.14" height="10.59"/><polygon class="cls-1" points="72.67 28.81 74 28.81 69.9 22.97 73.53 18.22 72.15 18.22 68.54 22.97 72.67 28.81"/><polygon class="cls-2" points="50.67 18.09 0.03 24.1 0.03 31.65 50.67 31.65 50.67 18.09"/><polygon class="cls-3" points="0.03 13.56 50.67 7.55 50.67 0 0.03 0 0.03 13.56"/><rect class="cls-4" y="40.46" width="14.6" height="14.6"/><polygon class="cls-1" points="197.08 38.6 195.23 38.6 195.23 46.66 192.12 46.66 192.12 48.45 197.08 48.45 197.08 38.6"/><polygon class="cls-1" points="175.55 51.88 175.55 49.27 173.71 49.27 173.71 51.88 169.52 51.88 169.52 49.27 167.68 49.27 167.68 51.88 164.42 51.88 164.42 53.67 178.76 53.67 178.76 51.88 175.55 51.88"/><polygon class="cls-1" points="75.54 38.63 75.54 47.98 77.44 47.98 77.44 40.23 80.38 40.23 80.38 38.63 75.54 38.63"/><polygon class="cls-1" points="63.68 40.52 63.68 37.83 65.58 37.83 65.58 38.91 71.47 38.91 71.47 40.52 63.68 40.52"/><polygon class="cls-1" points="65.92 55.75 65.92 51.14 67.81 51.14 67.81 54.14 78.21 54.14 78.21 55.74 65.92 55.75"/><polygon class="cls-1" points="184.34 55.12 184.34 50.51 186.23 50.51 186.23 53.52 197.38 53.52 197.38 55.12 184.34 55.12"/><polygon class="cls-1" points="177.16 43.74 177.16 38.77 165.77 38.78 165.77 40.37 175.26 40.37 175.26 42.11 165.51 42.11 165.52 47.01 178.15 47 178.15 45.41 167.41 45.41 167.41 43.74 177.16 43.74"/><polygon class="cls-1" points="189.6 46.05 189.6 49.79 187.71 49.79 187.71 47.65 182.49 47.65 182.49 46.05 189.6 46.05"/><polygon class="cls-1" points="98.94 50.76 98.94 56.05 97.05 56.05 97.05 52.35 84.12 52.35 84.12 50.76 98.94 50.76"/><path class="cls-1" d="M103.13,42.07a4.07,4.07,0,1,0,4.07-3.83A4,4,0,0,0,103.13,42.07Zm1.89,0a2.18,2.18,0,1,1,2.18,2.22A2.21,2.21,0,0,1,105,42.06Z"/><path class="cls-1" d="M183.39,41a3.92,3.92,0,1,0,3.91-3.68A3.81,3.81,0,0,0,183.39,41Zm1.83,0a2.09,2.09,0,1,1,2.08,2.13A2.12,2.12,0,0,1,185.22,41Z"/><path class="cls-1" d="M63.49,44.63A3.92,3.92,0,1,0,67.4,41,3.81,3.81,0,0,0,63.49,44.63Zm1.83,0a2.09,2.09,0,1,1,2.08,2.14A2.11,2.11,0,0,1,65.32,44.63Z"/><path class="cls-1" d="M111.21,51.74a4.42,4.42,0,1,0,4.41-4.15A4.3,4.3,0,0,0,111.21,51.74Zm1.91,0a2.51,2.51,0,1,1,2.5,2.66A2.58,2.58,0,0,1,113.12,51.74Z"/><path class="cls-1" d="M130.12,51.74a4.42,4.42,0,1,0,4.41-4.15A4.3,4.3,0,0,0,130.12,51.74Zm1.92,0a2.5,2.5,0,1,1,2.49,2.66A2.57,2.57,0,0,1,132,51.74Z"/><polygon class="cls-1" points="135.94 38.61 135.94 46.54 137.83 46.54 137.83 40.2 140.52 40.2 140.52 38.61 135.94 38.61"/><polygon class="cls-1" points="157.14 38.61 157.14 55.6 159.03 55.6 159.03 40.2 161.28 40.2 161.28 38.61 157.14 38.61"/><polygon class="cls-1" points="96.54 44.88 96.54 38.78 85.55 38.78 85.55 40.37 94.67 40.37 94.67 44.88 83.73 44.88 83.73 46.49 90.11 46.49 90.11 49.49 92.01 49.49 92.01 46.49 99.6 46.49 99.6 44.88 96.54 44.88"/><polygon class="cls-1" points="118.72 38.63 112.84 38.63 112.84 40.2 116.82 40.2 116.81 43.55 112.84 43.55 112.84 45.15 116.81 45.15 116.81 46.53 118.72 46.53 118.72 38.63"/><polygon class="cls-1" points="128.88 41.3 128.88 41.3 132.24 45.21 134.61 45.21 128.86 38.35 123.15 45.21 125.53 45.21 128.88 41.3"/><polygon class="cls-1" points="153.99 38.84 153.99 40.45 150.61 40.45 155.12 47.64 152.96 47.64 149.66 42.48 149.66 42.48 146.35 47.64 144.19 47.64 148.71 40.45 145.33 40.45 145.33 38.84 153.99 38.84"/></g></g></svg>